<svg width="35" height="27" viewBox="0 0 35 27" fill="none" xmlns="http://www.w3.org/2000/svg">
<ellipse cx="12.5" cy="14" rx="2.5" ry="3" fill="#7F7F7F"/>
<ellipse cx="22.5" cy="14" rx="2.5" ry="3" fill="#7F7F7F"/>
<path d="M5.15 11.2388C5.15 8.45256 7.46732 6.15 10.3806 6.15H24.6194C27.5327 6.15 29.85 8.45256 29.85 11.2388V20.7612C29.85 23.5474 27.5327 25.85 24.6194 25.85H10.3806C7.46732 25.85 5.15 23.5474 5.15 20.7612V11.2388Z" stroke="#7F7F7F" stroke-width="2.3"/>
<path d="M32 16.5L32 16.4887L32 16.4774L32 16.4661L32 16.4548L32 16.4435L32 16.4322L32 16.4209L32 16.4097L32 16.3984L32 16.3872L32 16.3759L32 16.3647L32 16.3535L32 16.3423L32 16.3311L32 16.3199L32 16.3087L32 16.2975L32 16.2864L32 16.2752L32 16.2641L32 16.2529L32 16.2418L32 16.2307L32 16.2196L32 16.2085L32 16.1974L32 16.1863L32 16.1753L32 16.1642L32 16.1532L32 16.1421L32 16.1311L32 16.1201L32 16.1091L32 16.0981L32 16.0871L32 16.0761L32 16.0652L32 16.0542L32 16.0433L32 16.0324L32 16.0214L32 16.0105L32 15.9996L32 15.9887L32 15.9779L32 15.967L32 15.9561L32 15.9453L32 15.9344L32 15.9236L32 15.9128L32 15.902L32 15.8912L32 15.8804L32 15.8697L32 15.8589L32 15.8482L32 15.8374L32 15.8267L32 15.816L32 15.8053L32 15.7946L32 15.784L32 15.7733L32 15.7626L32 15.752L32 15.7414L32 15.7308L32 15.7202L32 15.7096L32 15.699L32 15.6884L32 15.6779L32 15.6673L32 15.6568L32 15.6463L32 15.6358L32 15.6253L32 15.6148L32 15.6044L32 15.5939L32 15.5835L32 15.573L32 15.5626L32 15.5522L32 15.5418L32 15.5315L32 15.5211L32 15.5107L32 15.5004L32 15.4901L32 15.4798L32 15.4695L32 15.4592L32 15.4489L32 15.4387L32 15.4284L32 15.4182L32 15.408L32 15.3978L32 15.3876L32 15.3774L32 15.3673L32 15.3571L32 15.347L32 15.3369L32 15.3268L32 15.3167L32 15.3066L32 15.2966L32 15.2865L32 15.2765L32 15.2665L32 15.2565L32 15.2465L32 15.2365L32 15.2266L32 15.2166L32 15.2067L32 15.1968L32 15.1869L32 15.177L32 15.1672L32 15.1573L32 15.1475L32 15.1376L32 15.1278L32 15.118L32 15.1083L32 15.0985L32 15.0888L32 15.079L32 15.0693L32 15.0596L32 15.0499L32 15.0403L32 15.0306L32 15.021L32 15.0114L32 15.0018L32 14.9922L32 14.9826L32 14.9731L32 14.9635L32 14.954L32 14.9445L32 14.935L32 14.9255L32 14.9161L32 14.9066L32 14.8972L32 14.8878L32 14.8784L32 14.869L32 14.8597L32 14.8503L32 14.841L32 14.8317L32 14.8224L32 14.8131L32 14.8039L32 14.7946L32 14.7854L32 14.7762L32 14.767L32 14.7579L32 14.7487L32 14.7396L32 14.7304L32 14.7213L32 14.7123L32 14.7032L32 14.6942L32 14.6851L32 14.6761L32 14.6671L32 14.6581L32 14.6492L32 14.6402L32 14.6313L32 14.6224L32 14.6135L32 14.6047L32 14.5958L32 14.587L32 14.5782L32 14.5694L32 14.5606L32 14.5519L32 14.5431L32 14.5344L32 14.5257L32 14.517L32 14.5084L32 14.4997L32 14.4911L32 14.4825L32 14.4739L32 14.4653L32 14.4568L32 14.4482L32 14.4397L32 14.4312L32 14.4228L32 14.4143L32 14.4059L32 14.3975L32 14.3891L32 14.3807L32 14.3724L32 14.364L32 14.3557L32 14.3474L32 14.3391L32 14.3309L32 14.3227L32 14.3144L32 14.3062L32 14.2981L32 14.2899L32 14.2818L32 14.2737L32 14.2656L32 14.2575L32 14.2495L32 14.2414L32 14.2334L32 14.2254L32 14.2175L32 14.2095L32 14.2016L32 14.1937L32 14.1858L32 14.1779L32 14.1701L32 14.1623L32 14.1545L32 14.1467L32 14.1397C33.2242 14.4981 34 15.493 34 16.5C34 17.507 33.2242 18.5019 32 18.8603L32 18.8533L32 18.8455L32 18.8377L32 18.8299L32 18.8221L32 18.8142L32 18.8063L32 18.7984L32 18.7905L32 18.7825L32 18.7746L32 18.7666L32 18.7586L32 18.7505L32 18.7425L32 18.7344L32 18.7263L32 18.7182L32 18.7101L32 18.7019L32 18.6938L32 18.6856L32 18.6773L32 18.6691L32 18.6609L32 18.6526L32 18.6443L32 18.636L32 18.6276L32 18.6193L32 18.6109L32 18.6025L32 18.5941L32 18.5857L32 18.5772L32 18.5688L32 18.5603L32 18.5518L32 18.5432L32 18.5347L32 18.5261L32 18.5175L32 18.5089L32 18.5003L32 18.4916L32 18.483L32 18.4743L32 18.4656L32 18.4569L32 18.4481L32 18.4394L32 18.4306L32 18.4218L32 18.413L32 18.4042L32 18.3953L32 18.3865L32 18.3776L32 18.3687L32 18.3598L32 18.3508L32 18.3419L32 18.3329L32 18.3239L32 18.3149L32 18.3058L32 18.2968L32 18.2877L32 18.2787L32 18.2696L32 18.2604L32 18.2513L32 18.2421L32 18.233L32 18.2238L32 18.2146L32 18.2054L32 18.1961L32 18.1869L32 18.1776L32 18.1683L32 18.159L32 18.1497L32 18.1403L32 18.131L32 18.1216L32 18.1122L32 18.1028L32 18.0934L32 18.0839L32 18.0745L32 18.065L32 18.0555L32 18.046L32 18.0365L32 18.0269L32 18.0174L32 18.0078L32 17.9982L32 17.9886L32 17.979L32 17.9694L32 17.9597L32 17.9501L32 17.9404L32 17.9307L32 17.921L32 17.9112L32 17.9015L32 17.8917L32 17.882L32 17.8722L32 17.8624L32 17.8525L32 17.8427L32 17.8328L32 17.823L32 17.8131L32 17.8032L32 17.7933L32 17.7834L32 17.7734L32 17.7635L32 17.7535L32 17.7435L32 17.7335L32 17.7235L32 17.7135L32 17.7034L32 17.6934L32 17.6833L32 17.6732L32 17.6631L32 17.653L32 17.6429L32 17.6327L32 17.6226L32 17.6124L32 17.6022L32 17.592L32 17.5818L32 17.5716L32 17.5613L32 17.5511L32 17.5408L32 17.5305L32 17.5202L32 17.5099L32 17.4996L32 17.4893L32 17.4789L32 17.4685L32 17.4582L32 17.4478L32 17.4374L32 17.427L32 17.4165L32 17.4061L32 17.3956L32 17.3852L32 17.3747L32 17.3642L32 17.3537L32 17.3432L32 17.3327L32 17.3221L32 17.3116L32 17.301L32 17.2904L32 17.2798L32 17.2692L32 17.2586L32 17.248L32 17.2374L32 17.2267L32 17.216L32 17.2054L32 17.1947L32 17.184L32 17.1733L32 17.1626L32 17.1518L32 17.1411L32 17.1303L32 17.1196L32 17.1088L32 17.098L32 17.0872L32 17.0764L32 17.0656L32 17.0547L32 17.0439L32 17.033L32 17.0221L32 17.0113L32 17.0004L32 16.9895L32 16.9786L32 16.9676L32 16.9567L32 16.9458L32 16.9348L32 16.9239L32 16.9129L32 16.9019L32 16.8909L32 16.8799L32 16.8689L32 16.8579L32 16.8468L32 16.8358L32 16.8247L32 16.8137L32 16.8026L32 16.7915L32 16.7804L32 16.7693L32 16.7582L32 16.7471L32 16.7359L32 16.7248L32 16.7136L32 16.7025L32 16.6913L32 16.6801L32 16.6689L32 16.6577L32 16.6465L32 16.6353L32 16.6241L32 16.6128L32 16.6016L32 16.5903L32 16.5791L32 16.5678L32 16.5565L32 16.5452L32 16.5339L32 16.5226L32 16.5113L32 16.5Z" stroke="#7F7F7F" stroke-width="2"/>
<path d="M3 16.5V16.5113V16.5226V16.5339V16.5452V16.5565V16.5678V16.5791V16.5903V16.6016V16.6128V16.6241V16.6353V16.6465V16.6577V16.6689V16.6801V16.6913V16.7025V16.7136V16.7248V16.7359V16.7471V16.7582V16.7693V16.7804V16.7915V16.8026V16.8137V16.8247V16.8358V16.8468V16.8579V16.8689V16.8799V16.8909V16.9019V16.9129V16.9239V16.9348V16.9458V16.9567V16.9676V16.9786V16.9895V17.0004V17.0113V17.0221V17.033V17.0439V17.0547V17.0656V17.0764V17.0872V17.098V17.1088V17.1196V17.1303V17.1411V17.1518V17.1626V17.1733V17.184V17.1947V17.2054V17.216V17.2267V17.2374V17.248V17.2586V17.2692V17.2798V17.2904V17.301V17.3116V17.3221V17.3327V17.3432V17.3537V17.3642V17.3747V17.3852V17.3956V17.4061V17.4165V17.427V17.4374V17.4478V17.4582V17.4685V17.4789V17.4893V17.4996V17.5099V17.5202V17.5305V17.5408V17.5511V17.5613V17.5716V17.5818V17.592V17.6022V17.6124V17.6226V17.6327V17.6429V17.653V17.6631V17.6732V17.6833V17.6934V17.7034V17.7135V17.7235V17.7335V17.7435V17.7535V17.7635V17.7734V17.7834V17.7933V17.8032V17.8131V17.823V17.8328V17.8427V17.8525V17.8624V17.8722V17.882V17.8917V17.9015V17.9112V17.921V17.9307V17.9404V17.9501V17.9597V17.9694V17.979V17.9886V17.9982V18.0078V18.0174V18.0269V18.0365V18.046V18.0555V18.065V18.0745V18.0839V18.0934V18.1028V18.1122V18.1216V18.131V18.1403V18.1497V18.159V18.1683V18.1776V18.1869V18.1961V18.2054V18.2146V18.2238V18.233V18.2421V18.2513V18.2604V18.2696V18.2787V18.2877V18.2968V18.3058V18.3149V18.3239V18.3329V18.3419V18.3508V18.3598V18.3687V18.3776V18.3865V18.3953V18.4042V18.413V18.4218V18.4306V18.4394V18.4481V18.4569V18.4656V18.4743V18.483V18.4916V18.5003V18.5089V18.5175V18.5261V18.5347V18.5432V18.5518V18.5603V18.5688V18.5772V18.5857V18.5941V18.6025V18.6109V18.6193V18.6276V18.636V18.6443V18.6526V18.6609V18.6691V18.6773V18.6856V18.6938V18.7019V18.7101V18.7182V18.7263V18.7344V18.7425V18.7505V18.7586V18.7666V18.7746V18.7825V18.7905V18.7984V18.8063V18.8142V18.8221V18.8299V18.8377V18.8455V18.8533V18.8603C1.77582 18.5019 1 17.507 1 16.5C1 15.493 1.77582 14.4981 3 14.1397V14.1467V14.1545V14.1623V14.1701V14.1779V14.1858V14.1937V14.2016V14.2095V14.2175V14.2254V14.2334V14.2414V14.2495V14.2575V14.2656V14.2737V14.2818V14.2899V14.2981V14.3062V14.3144V14.3227V14.3309V14.3391V14.3474V14.3557V14.364V14.3724V14.3807V14.3891V14.3975V14.4059V14.4143V14.4228V14.4312V14.4397V14.4482V14.4568V14.4653V14.4739V14.4825V14.4911V14.4997V14.5084V14.517V14.5257V14.5344V14.5431V14.5519V14.5606V14.5694V14.5782V14.587V14.5958V14.6047V14.6135V14.6224V14.6313V14.6402V14.6492V14.6581V14.6671V14.6761V14.6851V14.6942V14.7032V14.7123V14.7213V14.7304V14.7396V14.7487V14.7579V14.767V14.7762V14.7854V14.7946V14.8039V14.8131V14.8224V14.8317V14.841V14.8503V14.8597V14.869V14.8784V14.8878V14.8972V14.9066V14.9161V14.9255V14.935V14.9445V14.954V14.9635V14.973V14.9826V14.9922V15.0018V15.0114V15.021V15.0306V15.0403V15.0499V15.0596V15.0693V15.079V15.0888V15.0985V15.1083V15.118V15.1278V15.1376V15.1475V15.1573V15.1672V15.177V15.1869V15.1968V15.2067V15.2166V15.2266V15.2365V15.2465V15.2565V15.2665V15.2765V15.2865V15.2966V15.3066V15.3167V15.3268V15.3369V15.347V15.3571V15.3673V15.3774V15.3876V15.3978V15.408V15.4182V15.4284V15.4387V15.4489V15.4592V15.4695V15.4798V15.4901V15.5004V15.5107V15.5211V15.5315V15.5418V15.5522V15.5626V15.573V15.5835V15.5939V15.6044V15.6148V15.6253V15.6358V15.6463V15.6568V15.6673V15.6779V15.6884V15.699V15.7096V15.7202V15.7308V15.7414V15.752V15.7626V15.7733V15.784V15.7946V15.8053V15.816V15.8267V15.8374V15.8482V15.8589V15.8697V15.8804V15.8912V15.902V15.9128V15.9236V15.9344V15.9453V15.9561V15.967V15.9779V15.9887V15.9996V16.0105V16.0214V16.0324V16.0433V16.0542V16.0652V16.0761V16.0871V16.0981V16.1091V16.1201V16.1311V16.1421V16.1532V16.1642V16.1753V16.1863V16.1974V16.2085V16.2196V16.2307V16.2418V16.2529V16.2641V16.2752V16.2864V16.2975V16.3087V16.3199V16.3311V16.3423V16.3535V16.3647V16.3759V16.3872V16.3984V16.4097V16.4209V16.4322V16.4435V16.4548V16.4661V16.4774V16.4887V16.5Z" stroke="#7F7F7F" stroke-width="2"/>
<path d="M20 2.5C20 3.88071 18.8807 5 17.5 5C16.1193 5 15 3.88071 15 2.5C15 1.11929 16.1193 0 17.5 0C18.8807 0 20 1.11929 20 2.5Z" fill="#7F7F7F"/>
<path d="M11 24.2155C11 22.9919 12.1462 22 13.5601 22H21.4399C22.8538 22 24 22.9919 24 24.2155V24.7845C24 26.0081 22.8538 27 21.4399 27H13.5601C12.1462 27 11 26.0081 11 24.7845V24.2155Z" fill="#7F7F7F"/>
</svg>
