<svg width="29" height="23" viewBox="0 0 29 23" fill="none" xmlns="http://www.w3.org/2000/svg">
<mask id="path-1-inside-1_426_5438" fill="white">
<ellipse cx="10.7802" cy="11.7544" rx="1.76316" ry="2.35088"/>
</mask>
<path d="M10.5434 11.7544C10.5434 12.0127 10.4624 12.1696 10.427 12.2168C10.4119 12.2369 10.4243 12.2122 10.4841 12.1785C10.5495 12.1416 10.6535 12.1053 10.7802 12.1053V16.1053C12.0378 16.1053 13.0238 15.421 13.627 14.6168C14.2297 13.8131 14.5434 12.7945 14.5434 11.7544H10.5434ZM10.7802 12.1053C10.907 12.1053 11.011 12.1416 11.0764 12.1785C11.1362 12.2122 11.1486 12.2369 11.1335 12.2168C11.0981 12.1696 11.0171 12.0127 11.0171 11.7544H7.01709C7.01709 12.7945 7.33076 13.8131 7.93351 14.6168C8.53671 15.421 9.52271 16.1053 10.7802 16.1053V12.1053ZM11.0171 11.7544C11.0171 11.4962 11.0981 11.3393 11.1335 11.2921C11.1486 11.272 11.1362 11.2967 11.0764 11.3304C11.011 11.3673 10.907 11.4036 10.7802 11.4036V7.40356C9.52271 7.40356 8.53671 8.08785 7.93351 8.89212C7.33076 9.69578 7.01709 10.7144 7.01709 11.7544H11.0171ZM10.7802 11.4036C10.6535 11.4036 10.5495 11.3673 10.4841 11.3304C10.4243 11.2967 10.4119 11.272 10.427 11.2921C10.4624 11.3393 10.5434 11.4962 10.5434 11.7544H14.5434C14.5434 10.7144 14.2297 9.69578 13.627 8.89212C13.0238 8.08785 12.0378 7.40356 10.7802 7.40356V11.4036Z" fill="white" mask="url(#path-1-inside-1_426_5438)"/>
<mask id="path-3-inside-2_426_5438" fill="white">
<ellipse cx="19.0084" cy="11.7544" rx="1.76316" ry="2.35088"/>
</mask>
<path d="M18.7716 11.7544C18.7716 12.0127 18.6905 12.1696 18.6551 12.2168C18.6401 12.2369 18.6525 12.2122 18.7123 12.1785C18.7776 12.1416 18.8816 12.1053 19.0084 12.1053V16.1053C20.2659 16.1053 21.2519 15.421 21.8551 14.6168C22.4579 13.8131 22.7716 12.7945 22.7716 11.7544H18.7716ZM19.0084 12.1053C19.1352 12.1053 19.2392 12.1416 19.3045 12.1785C19.3643 12.2122 19.3767 12.2369 19.3617 12.2168C19.3263 12.1696 19.2452 12.0127 19.2452 11.7544H15.2452C15.2452 12.7945 15.5589 13.8131 16.1617 14.6168C16.7649 15.421 17.7509 16.1053 19.0084 16.1053V12.1053ZM19.2452 11.7544C19.2452 11.4962 19.3263 11.3393 19.3617 11.2921C19.3767 11.272 19.3643 11.2967 19.3045 11.3304C19.2392 11.3673 19.1352 11.4036 19.0084 11.4036V7.40356C17.7509 7.40356 16.7649 8.08785 16.1617 8.89212C15.5589 9.69578 15.2452 10.7144 15.2452 11.7544H19.2452ZM19.0084 11.4036C18.8816 11.4036 18.7776 11.3673 18.7123 11.3304C18.6525 11.2967 18.6401 11.272 18.6551 11.2921C18.6905 11.3393 18.7716 11.4962 18.7716 11.7544H22.7716C22.7716 10.7144 22.4579 9.69578 21.8551 8.89212C21.2519 8.08785 20.2659 7.40356 19.0084 7.40356V11.4036Z" fill="white" mask="url(#path-3-inside-2_426_5438)"/>
<path d="M5.06543 9.70178C5.06543 7.35457 6.96822 5.45178 9.31543 5.45178H20.4733C22.8205 5.45178 24.7233 7.35457 24.7233 9.70178V17.3334C24.7233 19.6806 22.8205 21.5834 20.4733 21.5834H9.31543C6.96822 21.5834 5.06543 19.6806 5.06543 17.3334V9.70178Z" stroke="white" stroke-width="1.5"/>
<path d="M26.4733 13.5176L26.4733 13.5081L26.4733 13.4986L26.4733 13.4891L26.4733 13.4796L26.4733 13.4701L26.4733 13.4607L26.4733 13.4512L26.4733 13.4417L26.4733 13.4323L26.4733 13.4228L26.4733 13.4134L26.4733 13.404L26.4733 13.3946L26.4733 13.3852L26.4733 13.3758L26.4733 13.3664L26.4733 13.357L26.4733 13.3476L26.4733 13.3382L26.4733 13.3289L26.4733 13.3195L26.4733 13.3102L26.4733 13.3008L26.4733 13.2915L26.4733 13.2822L26.4733 13.2728L26.4733 13.2635L26.4733 13.2542L26.4733 13.2449L26.4733 13.2357L26.4733 13.2264L26.4733 13.2171L26.4733 13.2079L26.4733 13.1986L26.4733 13.1894L26.4733 13.1801L26.4733 13.1709L26.4733 13.1617L26.4733 13.1525L26.4733 13.1433L26.4733 13.1341L26.4733 13.1249L26.4733 13.1158L26.4733 13.1066L26.4733 13.0975L26.4733 13.0883L26.4733 13.0792L26.4733 13.0701L26.4733 13.0609L26.4733 13.0518L26.4733 13.0427L26.4733 13.0337L26.4733 13.0246L26.4733 13.0155L26.4733 13.0064L26.4733 12.9974L26.4733 12.9884L26.4733 12.9793L26.4733 12.9703L26.4733 12.9613L26.4733 12.9523L26.4733 12.9433L26.4733 12.9343L26.4733 12.9254L26.4733 12.9164L26.4733 12.9074L26.4733 12.8985L26.4733 12.8896L26.4733 12.8806L26.4733 12.8717L26.4733 12.8628L26.4733 12.8539L26.4733 12.8451L26.4733 12.8362L26.4733 12.8273L26.4733 12.8185L26.4733 12.8096L26.4733 12.8008L26.4733 12.792L26.4733 12.7832L26.4733 12.7744L26.4733 12.7656L26.4733 12.7568L26.4733 12.7481L26.4733 12.7393L26.4733 12.7306L26.4733 12.7218L26.4733 12.7131L26.4733 12.7044L26.4733 12.6957L26.4733 12.687L26.4733 12.6783L26.4733 12.6697L26.4733 12.661L26.4733 12.6524L26.4733 12.6437L26.4733 12.6351L26.4733 12.6265L26.4733 12.6179L26.4733 12.6093L26.4733 12.6007L26.4733 12.5922L26.4733 12.5836L26.4733 12.5751L26.4733 12.5666L26.4733 12.558L26.4733 12.5495L26.4733 12.541L26.4733 12.5326L26.4733 12.5241L26.4733 12.5156L26.4733 12.5072L26.4733 12.4988L26.4733 12.4903L26.4733 12.4819L26.4733 12.4735L26.4733 12.4651L26.4733 12.4568L26.4733 12.4484L26.4733 12.4401L26.4733 12.4317L26.4733 12.4234L26.4733 12.4151L26.4733 12.4068L26.4733 12.3985L26.4733 12.3903L26.4733 12.382L26.4733 12.3737L26.4733 12.3655L26.4733 12.3573L26.4733 12.3491L26.4733 12.3409L26.4733 12.3327L26.4733 12.3245L26.4733 12.3164L26.4733 12.3082L26.4733 12.3001L26.4733 12.292L26.4733 12.2839L26.4733 12.2758L26.4733 12.2677L26.4733 12.2597L26.4733 12.2516L26.4733 12.2436L26.4733 12.2356L26.4733 12.2275L26.4733 12.2196L26.4733 12.2116L26.4733 12.2036L26.4733 12.1956L26.4733 12.1877L26.4733 12.1798L26.4733 12.1719L26.4733 12.164L26.4733 12.1561L26.4733 12.1482L26.4733 12.1404L26.4733 12.1325L26.4733 12.1247L26.4733 12.1169L26.4733 12.1091L26.4733 12.1013L26.4733 12.0935L26.4733 12.0858L26.4733 12.078L26.4733 12.0703L26.4733 12.0626L26.4733 12.0549L26.4733 12.0472L26.4733 12.0395L26.4733 12.0319L26.4733 12.0242L26.4733 12.0166L26.4733 12.009L26.4733 12.0014L26.4733 11.9938L26.4733 11.9862L26.4733 11.9787L26.4733 11.9712L26.4733 11.9636L26.4733 11.9561L26.4733 11.9486L26.4733 11.9412L26.4733 11.9337L26.4733 11.9263L26.4733 11.9188L26.4733 11.9114L26.4733 11.904L26.4733 11.8966L26.4733 11.8893L26.4733 11.8819L26.4733 11.8746L26.4733 11.8673L26.4733 11.86L26.4733 11.8527L26.4733 11.8454L26.4733 11.8381L26.4733 11.8309L26.4733 11.8237L26.4733 11.8165L26.4733 11.8093L26.4733 11.8021L26.4733 11.7949L26.4733 11.7878L26.4733 11.7807L26.4733 11.7735L26.4733 11.7665L26.4733 11.7594L26.4733 11.7523L26.4733 11.7453L26.4733 11.7382L26.4733 11.7341C27.4413 12.0555 27.9996 12.8227 27.9996 13.5176C27.9996 14.2125 27.4413 14.9796 26.4733 15.3011L26.4733 15.2969L26.4733 15.2899L26.4733 15.2829L26.4733 15.2758L26.4733 15.2687L26.4733 15.2616L26.4733 15.2545L26.4733 15.2474L26.4733 15.2402L26.4733 15.2331L26.4733 15.2259L26.4733 15.2187L26.4733 15.2115L26.4733 15.2043L26.4733 15.197L26.4733 15.1898L26.4733 15.1825L26.4733 15.1752L26.4733 15.1679L26.4733 15.1606L26.4733 15.1532L26.4733 15.1459L26.4733 15.1385L26.4733 15.1311L26.4733 15.1237L26.4733 15.1163L26.4733 15.1089L26.4733 15.1015L26.4733 15.094L26.4733 15.0865L26.4733 15.079L26.4733 15.0715L26.4733 15.064L26.4733 15.0565L26.4733 15.0489L26.4733 15.0413L26.4733 15.0338L26.4733 15.0262L26.4733 15.0186L26.4733 15.0109L26.4733 15.0033L26.4733 14.9956L26.4733 14.988L26.4733 14.9803L26.4733 14.9726L26.4733 14.9649L26.4733 14.9571L26.4733 14.9494L26.4733 14.9416L26.4733 14.9339L26.4733 14.9261L26.4733 14.9183L26.4733 14.9105L26.4733 14.9026L26.4733 14.8948L26.4733 14.8869L26.4733 14.8791L26.4733 14.8712L26.4733 14.8633L26.4733 14.8554L26.4733 14.8475L26.4733 14.8395L26.4733 14.8316L26.4733 14.8236L26.4733 14.8156L26.4733 14.8076L26.4733 14.7996L26.4733 14.7916L26.4733 14.7835L26.4733 14.7755L26.4733 14.7674L26.4733 14.7594L26.4733 14.7513L26.4733 14.7432L26.4733 14.735L26.4733 14.7269L26.4733 14.7188L26.4733 14.7106L26.4733 14.7025L26.4733 14.6943L26.4733 14.6861L26.4733 14.6779L26.4733 14.6696L26.4733 14.6614L26.4733 14.6532L26.4733 14.6449L26.4733 14.6366L26.4733 14.6284L26.4733 14.6201L26.4733 14.6117L26.4733 14.6034L26.4733 14.5951L26.4733 14.5867L26.4733 14.5784L26.4733 14.57L26.4733 14.5616L26.4733 14.5532L26.4733 14.5448L26.4733 14.5364L26.4733 14.528L26.4733 14.5195L26.4733 14.5111L26.4733 14.5026L26.4733 14.4941L26.4733 14.4856L26.4733 14.4771L26.4733 14.4686L26.4733 14.4601L26.4733 14.4515L26.4733 14.443L26.4733 14.4344L26.4733 14.4258L26.4733 14.4173L26.4733 14.4087L26.4733 14.4L26.4733 14.3914L26.4733 14.3828L26.4733 14.3742L26.4733 14.3655L26.4733 14.3568L26.4733 14.3482L26.4733 14.3395L26.4733 14.3308L26.4733 14.3221L26.4733 14.3133L26.4733 14.3046L26.4733 14.2959L26.4733 14.2871L26.4733 14.2783L26.4733 14.2696L26.4733 14.2608L26.4733 14.252L26.4733 14.2432L26.4733 14.2344L26.4733 14.2255L26.4733 14.2167L26.4733 14.2078L26.4733 14.199L26.4733 14.1901L26.4733 14.1812L26.4733 14.1723L26.4733 14.1634L26.4733 14.1545L26.4733 14.1456L26.4733 14.1367L26.4733 14.1277L26.4733 14.1188L26.4733 14.1098L26.4733 14.1008L26.4733 14.0919L26.4733 14.0829L26.4733 14.0739L26.4733 14.0649L26.4733 14.0558L26.4733 14.0468L26.4733 14.0378L26.4733 14.0287L26.4733 14.0197L26.4733 14.0106L26.4733 14.0015L26.4733 13.9924L26.4733 13.9833L26.4733 13.9742L26.4733 13.9651L26.4733 13.956L26.4733 13.9468L26.4733 13.9377L26.4733 13.9285L26.4733 13.9194L26.4733 13.9102L26.4733 13.901L26.4733 13.8918L26.4733 13.8827L26.4733 13.8734L26.4733 13.8642L26.4733 13.855L26.4733 13.8458L26.4733 13.8365L26.4733 13.8273L26.4733 13.818L26.4733 13.8088L26.4733 13.7995L26.4733 13.7902L26.4733 13.7809L26.4733 13.7716L26.4733 13.7623L26.4733 13.753L26.4733 13.7437L26.4733 13.7343L26.4733 13.725L26.4733 13.7157L26.4733 13.7063L26.4733 13.6969L26.4733 13.6876L26.4733 13.6782L26.4733 13.6688L26.4733 13.6594L26.4733 13.65L26.4733 13.6406L26.4733 13.6312L26.4733 13.6217L26.4733 13.6123L26.4733 13.6029L26.4733 13.5934L26.4733 13.584L26.4733 13.5745L26.4733 13.565L26.4733 13.5556L26.4733 13.5461L26.4733 13.5366L26.4733 13.5271L26.4733 13.5176Z" stroke="white" stroke-width="2"/>
<path d="M3.31538 13.5176V13.5271V13.5366V13.5461V13.5556V13.565V13.5745V13.584V13.5934V13.6029V13.6123V13.6217V13.6312V13.6406V13.65V13.6594V13.6688V13.6782V13.6876V13.6969V13.7063V13.7157V13.725V13.7343V13.7437V13.753V13.7623V13.7716V13.7809V13.7902V13.7995V13.8088V13.818V13.8273V13.8365V13.8458V13.855V13.8642V13.8734V13.8826V13.8918V13.901V13.9102V13.9194V13.9285V13.9377V13.9468V13.956V13.9651V13.9742V13.9833V13.9924V14.0015V14.0106V14.0196V14.0287V14.0378V14.0468V14.0558V14.0648V14.0739V14.0829V14.0919V14.1008V14.1098V14.1188V14.1277V14.1367V14.1456V14.1545V14.1634V14.1723V14.1812V14.1901V14.199V14.2078V14.2167V14.2255V14.2344V14.2432V14.252V14.2608V14.2696V14.2783V14.2871V14.2959V14.3046V14.3133V14.3221V14.3308V14.3395V14.3482V14.3568V14.3655V14.3741V14.3828V14.3914V14.4V14.4087V14.4173V14.4258V14.4344V14.443V14.4515V14.4601V14.4686V14.4771V14.4856V14.4941V14.5026V14.5111V14.5195V14.528V14.5364V14.5448V14.5532V14.5616V14.57V14.5784V14.5867V14.5951V14.6034V14.6117V14.6201V14.6283V14.6366V14.6449V14.6532V14.6614V14.6696V14.6779V14.6861V14.6943V14.7024V14.7106V14.7188V14.7269V14.735V14.7432V14.7513V14.7594V14.7674V14.7755V14.7835V14.7916V14.7996V14.8076V14.8156V14.8236V14.8316V14.8395V14.8475V14.8554V14.8633V14.8712V14.8791V14.8869V14.8948V14.9026V14.9105V14.9183V14.9261V14.9339V14.9416V14.9494V14.9571V14.9649V14.9726V14.9803V14.988V14.9956V15.0033V15.0109V15.0186V15.0262V15.0338V15.0413V15.0489V15.0565V15.064V15.0715V15.079V15.0865V15.094V15.1014V15.1089V15.1163V15.1237V15.1311V15.1385V15.1459V15.1532V15.1606V15.1679V15.1752V15.1825V15.1898V15.197V15.2043V15.2115V15.2187V15.2259V15.2331V15.2402V15.2474V15.2545V15.2616V15.2687V15.2758V15.2828V15.2899V15.2969V15.3011C2.34742 14.9796 1.78906 14.2125 1.78906 13.5176C1.78906 12.8227 2.34742 12.0555 3.31538 11.734V11.7382V11.7453V11.7523V11.7594V11.7664V11.7735V11.7807V11.7878V11.7949V11.8021V11.8093V11.8165V11.8237V11.8309V11.8381V11.8454V11.8527V11.86V11.8673V11.8746V11.8819V11.8893V11.8966V11.904V11.9114V11.9188V11.9263V11.9337V11.9412V11.9486V11.9561V11.9636V11.9712V11.9787V11.9862V11.9938V12.0014V12.009V12.0166V12.0242V12.0319V12.0395V12.0472V12.0549V12.0626V12.0703V12.078V12.0858V12.0935V12.1013V12.1091V12.1169V12.1247V12.1325V12.1404V12.1482V12.1561V12.164V12.1719V12.1798V12.1877V12.1956V12.2036V12.2116V12.2195V12.2275V12.2356V12.2436V12.2516V12.2597V12.2677V12.2758V12.2839V12.292V12.3001V12.3082V12.3164V12.3245V12.3327V12.3409V12.3491V12.3573V12.3655V12.3737V12.382V12.3902V12.3985V12.4068V12.4151V12.4234V12.4317V12.4401V12.4484V12.4568V12.4651V12.4735V12.4819V12.4903V12.4988V12.5072V12.5156V12.5241V12.5326V12.541V12.5495V12.558V12.5666V12.5751V12.5836V12.5922V12.6007V12.6093V12.6179V12.6265V12.6351V12.6437V12.6524V12.661V12.6697V12.6783V12.687V12.6957V12.7044V12.7131V12.7218V12.7306V12.7393V12.7481V12.7568V12.7656V12.7744V12.7832V12.792V12.8008V12.8096V12.8185V12.8273V12.8362V12.8451V12.8539V12.8628V12.8717V12.8806V12.8896V12.8985V12.9074V12.9164V12.9253V12.9343V12.9433V12.9523V12.9613V12.9703V12.9793V12.9884V12.9974V13.0064V13.0155V13.0246V13.0337V13.0427V13.0518V13.0609V13.0701V13.0792V13.0883V13.0975V13.1066V13.1158V13.1249V13.1341V13.1433V13.1525V13.1617V13.1709V13.1801V13.1894V13.1986V13.2079V13.2171V13.2264V13.2357V13.2449V13.2542V13.2635V13.2728V13.2822V13.2915V13.3008V13.3102V13.3195V13.3289V13.3382V13.3476V13.357V13.3664V13.3758V13.3852V13.3946V13.404V13.4134V13.4228V13.4323V13.4417V13.4512V13.4606V13.4701V13.4796V13.4891V13.4986V13.5081V13.5176Z" stroke="white" stroke-width="2"/>
<circle cx="14.8943" cy="2.35088" r="1.35088" fill="white" stroke="white" stroke-width="2"/>
<path d="M10.8164 19.8197C10.8164 19.2674 11.2641 18.8197 11.8164 18.8197H17.9722C18.5245 18.8197 18.9722 19.2674 18.9722 19.8197V20.3334C18.9722 20.8857 18.5245 21.3334 17.9722 21.3334H11.8164C11.2641 21.3334 10.8164 20.8857 10.8164 20.3334V19.8197Z" fill="white" stroke="white" stroke-width="2"/>
</svg>
