<svg width="15" height="15" viewBox="0 0 15 15" fill="none" xmlns="http://www.w3.org/2000/svg">
<path d="M6.42847 1.07143C6.42847 0.479694 6.90816 0 7.4999 0C8.09163 0 8.57132 0.479695 8.57132 1.07143V13.9286C8.57132 14.5203 8.09163 15 7.4999 15C6.90816 15 6.42847 14.5203 6.42847 13.9286V1.07143Z" fill="white"/>
<path d="M13.9286 6.42856C14.5203 6.42856 15 6.90825 15 7.49999C15 8.09172 14.5203 8.57142 13.9286 8.57142L1.07143 8.57141C0.479695 8.57141 -7.26991e-08 8.09172 -4.68336e-08 7.49999C-2.09681e-08 6.90825 0.479695 6.42856 1.07143 6.42856L13.9286 6.42856Z" fill="white"/>
</svg>
